#!OML:ASF E:\emotionWalksFemale\Project 1\Capture day 1\Session 1\Female1.ASF
:FULLY-SPECIFIED
:DEGREES
1398
root 9.3279 15.0616 -2.93959 173.924 -177.202 186.323
lowerback 1.09231 -6.61524 -0.467106
upperback -5.99734 -8.75922 2.24992
thorax -6.42776 -4.24892 3.1532
lowerneck -2.51594 9.32987 6.57881
upperneck 5.20229 12.6579 -7.15002
head 3.12821 6.25846 -2.98297
rclavicle -2.18663e-014 9.54166e-015
rhumerus -61.9215 -19.2859 -40.2888
rradius 34.5961
rwrist -3.46306
rhand -3.89739 -66.0706
rfingers 7.12502
rthumb 21.8525 94.8567
lclavicle -2.18663e-014 9.54166e-015
lhumerus -34.7887 17.3773 70.2153
lradius 46.4219
lwrist 2.92548
lhand -14.0205 -24.9425
lfingers 7.12502
lthumb 12.1093 4.68705
rfemur -27.9582 13.5614 15.1817
rtibia 39.0051
rfoot -16.6708 -26.9232
rtoes -1.94278
lfemur 14.7467 -8.89212 -40.8984
ltibia 14.2004
lfoot -19.7883 11.7509
ltoes -9.93733
1399
root 9.30933 15.0493 -2.80091 174.067 -177.599 186.354
lowerback 1.19474 -6.76434 -0.936393
upperback -6.05936 -8.9777 2.33233
thorax -6.45731 -4.32938 3.51712
lowerneck -2.18617 9.31263 6.48884
upperneck 4.73876 12.6242 -7.08419
head 2.89226 6.25125 -2.971
rclavicle -5.28767e-014 4.77083e-014
rhumerus -62.3572 -19.8099 -38.61
rradius 34.2584
rwrist -2.46265
rhand -2.45563 -65.3628
rfingers 7.12502
rthumb 23.2363 93.9809
lclavicle -5.28767e-014 4.77083e-014
lhumerus -35.5295 15.4379 70.7259
lradius 48.06
lwrist 3.344
lhand -15.1397 -25.3909
lfingers 7.12502
lthumb 11.03 4.29934
rfemur -28.1038 14.5279 14.878
rtibia 36.8807
rfoot -16.5797 -27.3056
rtoes -2.72758
lfemur 15.6653 -8.84427 -40.9448
ltibia 13.3715
lfoot -19.5267 11.5902
ltoes -10.6315
1400
root 9.2911 15.0377 -2.66234 174.28 -177.945 186.358
lowerback 1.32696 -6.88146 -1.37032
upperback -6.21943 -9.15313 2.4275
thorax -6.61171 -4.38527 3.88691
lowerneck -2.18635 9.28252 6.46158
upperneck 4.7347 12.5761 -6.96201
head 2.87443 6.22967 -2.92807
rclavicle 5.80451e-014 2.38542e-014
rhumerus -62.8691 -20.1878 -36.8434
rradius 33.9671
rwrist -1.46364
rhand 0.0877927 -64.0876
rfingers 7.12502
rthumb 25.6745 92.3763
lclavicle 5.80451e-014 2.38542e-014
lhumerus -36.3771 12.9081 71.3134
lradius 49.624
lwrist 4.2581
lhand -16.2921 -25.7899
lfingers 7.12502
lthumb 9.91837 3.95649
rfemur -28.3968 15.3851 14.5849
rtibia 35.0619
rfoot -17.0048 -27.5776
rtoes -2.23331
lfemur 16.5881 -9.05671 -41.0163
ltibia 12.3365
lfoot -19.1199 11.536
ltoes -10.318
1401
root 9.27351 15.0246 -2.52336 174.54 -178.184 186.48
lowerback 1.38759 -6.97889 -1.85882
upperback -6.33484 -9.30979 2.45471
thorax -6.67904 -4.43301 4.20064
lowerneck -2.42406 9.28721 6.32345
upperneck 4.82439 12.5544 -6.58645
head 2.90365 6.21959 -2.76638
rclavicle -1.09729e-013 -2.22639e-014
rhumerus -63.2299 -20.6507 -35.3345
rradius 33.7626
rwrist -0.804481
rhand 2.01104 -63.2168
rfingers 7.12502
rthumb 27.5151 91.2263
lclavicle -1.09729e-013 -2.22639e-014
lhumerus -36.837 9.99204 72.0242
lradius 50.6714
lwrist 5.58536
lhand -17.5447 -26.2517
lfingers 7.12502
lthumb 8.70977 3.54856
rfemur -28.8597 16.4155 14.0821
rtibia 33.5788
rfoot -17.3369 -28.0744
rtoes -2.31207
lfemur 17.6037 -9.06013 -41.1856
ltibia 11.0284
lfoot -18.2929 11.8331
ltoes -13.4182
1402
root 9.25408 15.009 -2.38039 174.715 -178.401 186.722
lowerback 1.35949 -7.09067 -2.45871
upperback -6.31626 -9.49305 2.41602
thorax -6.54103 -4.49795 4.47981
lowerneck -2.73553 9.26637 6.42014
upperneck 4.87652 12.5028 -6.52185
head 2.97754 6.19051 -2.74862
rclavicle -7.196e-014 1.27222e-014
rhumerus -63.3061 -21.0257 -34.4183
rradius 33.7367
rwrist -0.467772
rhand 2.87914 -63.321
rfingers 7.12502
rthumb 28.3451 91.1955
lclavicle -7.196e-014 1.27222e-014
lhumerus -37.0289 6.86778 72.7825
lradius 51.4596
lwrist 6.66763
lhand -18.8506 -26.768
lfingers 7.12502
lthumb 7.44931 3.08082
rfemur -29.2381 17.7823 13.375
rtibia 32.3688
rfoot -17.1535 -28.8866
rtoes -3.84079
lfemur 18.8539 -9.0443 -41.4869
ltibia 9.47875
lfoot -17.2238 12.1793
ltoes -18.1817
1403
root 9.23345 14.994 -2.24 174.886 -178.677 186.83
lowerback 1.40559 -7.1842 -2.93738
upperback -6.36261 -9.64615 2.40833
thorax -6.52947 -4.54842 4.74218
lowerneck -2.99619 9.20234 6.59306
upperneck 4.98987 12.4016 -6.55646
head 3.0744 6.1368 -2.78205
rclavicle 1.61811e-013 3.97569e-014
rhumerus -63.3492 -21.1677 -33.7022
rradius 33.7269
rwrist -0.618301
rhand 3.33929 -63.6821
rfingers 7.12502
rthumb 28.7847 91.4827
lclavicle 1.61811e-013 3.97569e-014
lhumerus -37.448 3.55995 73.5652
lradius 52.2736
lwrist 6.73661
lhand -19.8286 -27.9386
lfingers 7.12502
lthumb 6.50529 1.94144
rfemur -29.5315 19.0681 12.8133
rtibia 31.3346
rfoot -17.2144 -29.6386
rtoes -3.68467
lfemur 20.1511 -9.12693 -41.5473
ltibia 7.81558
lfoot -16.6608 11.4356
ltoes -16.6994
1404
root 9.21366 14.9852 -2.09706 175.034 -178.852 186.848
lowerback 1.4035 -7.20353 -3.26705
upperback -6.42665 -9.6915 2.39519
thorax -6.54282 -4.55232 4.91047
lowerneck -2.83546 9.09785 6.37145
upperneck 4.75846 12.2426 -6.18838
head 2.90478 6.0667 -2.64182
rclavicle -1.04958e-013 -2.38542e-014
rhumerus -63.4419 -21.0032 -33.3202
rradius 33.9086
rwrist -1.57266
rhand 3.68495 -64.3373
rfingers 7.12502
rthumb 29.1149 92.0812
lclavicle -1.04958e-013 -2.38542e-014
lhumerus -38.108 0.146547 74.3414
lradius 53.2689
lwrist 6.11753
lhand -19.5714 -29.2856
lfingers 7.12502
lthumb 6.75358 0.5867
rfemur -29.7188 20.1142 12.4682
rtibia 30.4361
rfoot -17.9072 -30.1429
rtoes -1.07551
lfemur 21.4349 -9.12846 -41.4677
ltibia 6.16573
lfoot -16.114 10.4896
ltoes -13.5985
